<?xml version="1.0" encoding="UTF-8"?>
<!DOCTYPE svg PUBLIC "-//W3C//DTD SVG 1.1//EN" "http://www.w3.org/Graphics/SVG/1.1/DTD/svg11.dtd">
<!-- Creator: CorelDRAW 2020 (64 Bit) -->
<?xml-stylesheet href="avatar.css" type="text/css"?>
<svg xmlns="http://www.w3.org/2000/svg" xml:space="preserve" width="89.8174mm" height="122.767mm" version="1.1" style="shape-rendering:geometricPrecision; text-rendering:geometricPrecision; image-rendering:optimizeQuality; fill-rule:evenodd; clip-rule:evenodd"
viewBox="0 0 3117.8 4261.55"
 xmlns:xlink="http://www.w3.org/1999/xlink"
 xmlns:xodm="http://www.corel.com/coreldraw/odm/2003">
 <g id="DESIGNED_x0020_BY_x0020_FREEPIK">
  <metadata id="CorelCorpID_0Corel-Layer"/>
  <g id="_1474778426256">
   <g>
    <path fill="#E1E1E6" d="M2671.02 345.18c0,179.28 -145.33,324.61 -324.61,324.61 -179.28,0 -324.61,-145.33 -324.61,-324.61 0,-179.28 145.33,-324.61 324.61,-324.61 179.28,0 324.61,145.33 324.61,324.61z"/>
   </g>
   <g>
    <path fill="#DFDFDF" d="M2346.41 77.75c169.63,0 308.8,130.14 323.28,296.02 0.82,-9.43 1.33,-18.95 1.33,-28.59 0,-179.28 -145.33,-324.61 -324.61,-324.61 -179.28,0 -324.61,145.33 -324.61,324.61 0,9.64 0.5,19.16 1.33,28.59 14.48,-165.88 153.65,-296.02 323.28,-296.02z"/>
   </g>
   <g>
    <path fill="#46ACB5" d="M2346.41 690.36c-190.33,0 -345.18,-154.85 -345.18,-345.18 0,-190.34 154.85,-345.18 345.18,-345.18 190.33,0 345.19,154.85 345.19,345.18 0,190.33 -154.85,345.18 -345.19,345.18zm0 -649.21l0 0c-167.64,0 -304.03,136.39 -304.03,304.03 0,167.64 136.39,304.03 304.03,304.03 167.65,0 304.04,-136.39 304.04,-304.03 0,-167.64 -136.39,-304.03 -304.04,-304.03z"/>
   </g>
   <g>
    <g>
     <path fill="#eba417" d="M2483.35 234.81l-116.77 116.77c-4.87,4.87 -12.76,4.87 -17.63,0 -4.87,-4.87 -4.87,-12.76 0,-17.63l116.77 -116.77c4.87,-4.87 12.76,-4.87 17.63,0 4.87,4.86 4.87,12.75 0,17.62z"/>
    </g>
    <g>
     <path fill="#eba417" d="M2180.96 165.96l167.99 168c4.87,4.87 4.87,12.76 0,17.63 -4.87,4.87 -12.76,4.87 -17.62,0l-168 -168c-4.87,-4.87 -4.87,-12.76 0,-17.63 4.87,-4.86 12.76,-4.86 17.63,0z"/>
    </g>
   </g>
   <g>
    <path fill="#eba417" d="M2379.29 345.18c0,18.16 -14.72,32.87 -32.87,32.87 -18.16,0 -32.87,-14.71 -32.87,-32.87 0,-18.15 14.71,-32.87 32.87,-32.87 18.15,0 32.87,14.72 32.87,32.87z"/>
   </g>
   <g>
    <path fill="#FFFFFF" d="M2365.71 345.18c0,10.66 -8.64,19.3 -19.3,19.3 -10.66,0 -19.3,-8.64 -19.3,-19.3 0,-10.66 8.64,-19.3 19.3,-19.3 10.66,0 19.3,8.64 19.3,19.3z"/>
   </g>
  </g>
  <g id="_1474778451552">
   <polygon fill="#46ACB5" points="212.49,825 1455.57,825 1455.57,706.62 212.49,706.62 "/>
  </g>
  <g id="_1474778457600">
   <polygon fill="#349799" points="212.49,825 1455.57,825 1455.57,799.13 212.49,799.13 "/>
  </g>
  <g id="_1474778465952">
   <path fill="#64B5E4" d="M1291.43 706.62l-415.31 0c-24.13,0 -43.68,-19.56 -43.68,-43.68l0 -432.77c0,-24.13 19.56,-43.68 43.68,-43.68l415.31 0 0 520.14z"/>
   <polygon fill="#3A9AC4" points="1291.43,706.62 1129.84,706.62 1129.84,186.48 1291.43,186.48 "/>
   <polygon fill="#FFFFFF" points="1268.27,706.62 1162.46,706.62 1162.46,186.48 1268.27,186.48 "/>
  </g>
  <g id="_1474778466096">
   <path fill="#46ACB5" d="M1030.17 706.62l-415.31 0c-24.13,0 -43.68,-19.56 -43.68,-43.68l0 -432.77c0,-24.13 19.56,-43.68 43.68,-43.68l415.31 0 0 520.14z"/>
   <polygon fill="#46ACB5" points="1030.17,706.62 868.58,706.62 868.58,186.48 1030.17,186.48 "/>
   <polygon fill="FFFFFF" points="1007,706.62 901.2,706.62 901.2,186.48 1007,186.48 "/>
  </g>
  <g id="_1474778468496">
   <path fill="#eba417" d="M767.33 706.62l-334.52 0c-24.12,0 -43.68,-19.56 -43.68,-43.68l0 -432.77c0,-24.13 19.56,-43.68 43.68,-43.68l334.52 0 0 520.14z"/>
   <polygon fill="#46ACB5" points="767.33,706.62 634.19,706.62 634.19,186.48 767.33,186.48 "/>
   <polygon fill="#FFFFFF" points="748.24,706.62 661.06,706.62 661.06,186.48 748.24,186.48 "/>
  </g>
  <g id="_1474778472144">
   <path fill="#FFFFFF" d="M2458.8 2267.64l-1787.76 0c-47.37,0 -85.77,-38.4 -85.77,-85.76l0 -1053.87c0,-47.37 38.4,-85.76 85.77,-85.76l1787.76 0c47.37,0 85.76,38.4 85.76,85.76l0 1053.87c0,47.37 -38.4,85.76 -85.76,85.76z"/>
  </g>
  <g id="_1474778471952">
   <polygon fill="#C4E8FF" points="585.27,1913.58 585.27,2136.9 1679.91,1042.25 1456.6,1042.25 "/>
  </g>
  <g id="_1474778471424">
   <path fill="#C4E8FF" d="M2155.99 2267.64l292.51 0c53.05,0 96.06,-43.01 96.06,-96.06l0 -292.51c-129.53,129.52 -259.05,259.04 -388.57,388.57z"/>
  </g>
  <g id="_1474778471904">
   <path fill="#C4E8FF" d="M2544.56 1220.01l0 -81.7c0,-53.05 -43.01,-96.06 -96.06,-96.06l-109.51 0c-408.47,408.47 -816.93,816.93 -1225.39,1225.39l383.34 0 1047.64 -1047.63z"/>
  </g>
  <g id="_1474778470944">
   <path fill="#858589" d="M2448.5 2308.79l-1767.17 0c-75.66,0 -137.21,-61.55 -137.21,-137.21l0 -1033.27c0,-75.66 61.55,-137.21 137.21,-137.21l1767.17 0c75.66,0 137.21,61.55 137.21,137.21l0 1033.27c0,75.66 -61.55,137.21 -137.21,137.21zm-1767.17 -1225.39l0 0c-30.28,0 -54.92,24.63 -54.92,54.91l0 850.03c0,30.28 24.63,54.91 54.92,54.91l1767.17 0c30.28,0 54.91,-24.63 54.91,-54.91l0 -850.03c0,-30.28 -24.64,-54.91 -54.91,-54.91l-1767.17 0z"/>
  </g>
  <g id="_1474778470512">
   <path fill="#6D6D6D" d="M2448.5 1063.26l-1767.17 0c-30.28,0 -54.92,24.63 -54.92,54.91l0 20.14c0,-30.28 24.63,-54.91 54.92,-54.91l1767.17 0c30.28,0 54.91,24.63 54.91,54.91l0 -20.14c0,-30.28 -24.64,-54.91 -54.91,-54.91z"/>
   <path fill="#6D6D6D" d="M2448.5 2288.65l-1767.17 0c-75.66,0 -137.21,-61.55 -137.21,-137.21l0 20.14c0,75.66 61.55,137.21 137.21,137.21l1767.17 0c75.66,0 137.21,-61.55 137.21,-137.21l0 -20.14c0,75.66 -61.55,137.21 -137.21,137.21z"/>
  </g>
  <path fill="#E4E4E4" d="M3117.8 4198.17c0,35.01 -697.94,63.39 -1558.9,63.39 -860.96,0 -1558.9,-28.38 -1558.9,-63.39 0,-35 697.94,-63.38 1558.9,-63.38 860.95,0 1558.9,28.38 1558.9,63.38z"/>
  <g id="_1474778475408">
   <polygon fill="#46ACB5" points="312.32,4199.59 418.66,4199.59 418.66,2740.59 312.32,2740.59 "/>
  </g>
  <g id="_1474778473536">
   <polygon fill="#46ACB5" points="2664.2,4199.59 2770.53,4199.59 2770.53,2740.59 2664.2,2740.59 "/>
  </g>
  <g id="_1474778473728">
   <polygon fill="#349799" points="312.32,2987.84 418.66,2987.84 418.66,2740.59 312.32,2740.59 "/>
  </g>
  <g id="_1474778474448">
   <polygon fill="#349799" points="2664.2,2987.84 2770.53,2987.84 2770.53,2740.59 2664.2,2740.59 "/>
  </g>
  <g id="_1474778473248">
   <polygon fill="#46ACB5" points="93.18,2807.74 3024.62,2807.74 3024.62,2689.36 93.18,2689.36 "/>
  </g>
  <g id="_1474778474544">
   <polygon fill="#349799" points="93.18,2807.74 3024.62,2807.74 3024.62,2781.88 93.18,2781.88 "/>
  </g>
  <g id="_1474778476128">
   <polygon fill="#C4C3D6" points="656.97,2595.9 1465.03,2595.9 1465.03,2689.36 656.97,2689.36 "/>
  </g>
  <g id="_1474778476656">
   <polygon fill="#A5A5AC" points="739.01,2595.9 1547.07,2595.9 1547.07,2689.36 739.01,2689.36 "/>
  </g>
  <g id="_1474778479824">
   <path fill="#A5A5AC" d="M2382.36 2595.9l16.78 0c51.62,0 93.46,41.85 93.46,93.46l-203.7 0c0,-51.62 41.85,-93.46 93.46,-93.46z"/>
  </g>
  <path fill="#666666" d="M1546.98 2896.04l433.59 0c7.02,0 14.38,0.41 22,1.2 147.48,15.3 245.46,160.85 211,305.07l-177.42 825.92 -254.98 0 122.4 -783.35 -356.59 0 0 -348.83z"/>
  <g id="_1474778481120">
   <path fill="#7C230E" d="M1781.17 4028.23l212.83 0c0,0 226.49,21.42 226.49,171.36l-439.32 0 0 -171.36z"/>
  </g>
  <path fill="#666666" d="M1571.66 2896.04l-433.59 0c-7.02,0 -14.38,0.41 -22.01,1.2 -147.48,15.3 -245.46,160.85 -211,305.07l177.42 825.92 254.98 0 -122.4 -783.35 356.59 0 0 -348.83z"/>
  <path fill="#4D4F56" d="M1930.91 4028.23c0.86,-2.81 1.71,-5.59 2.57,-8.41 29.53,-97.25 57.37,-329.85 84.97,-427.67 29.53,-104.64 57.07,-210 77.41,-316.87 4.17,-21.92 7.73,-43.93 11.57,-65.91 1.44,-9.87 2.42,-16.41 2.95,-19.74 1.35,-11.44 2.69,-22.89 3.81,-34.36 0.27,-2.77 0.44,-5.54 0.69,-8.31l-567.9 0 0 97.92 356.59 0 -122.4 783.35 149.74 0z"/>
  <path fill="#4D4F56" d="M1571.66 3146.96l-545.49 0c2.58,11.14 5.26,22.26 8.08,33.37 23.99,94.33 54.84,186.74 85.62,279.02 30,89.93 61.42,179.88 84.54,271.9 13.57,54.02 23.91,243.23 37.48,296.98l95.58 0 -122.4 -783.35 356.59 0 0 -97.92z"/>
  <g id="_1474778481936">
   <g>
    <g>
     <g>
      <path fill="#EDAC7C" d="M1308.76 1450.19c0,0 -54.29,-85.67 -116.46,-38.89 -62.18,46.79 3.74,216.01 116.77,188.72l-0.31 -149.83z"/>
      <path fill="#F6A587" d="M1308.87 1506.97l0.18 77.13c-96.22,7.79 -137.4,-129.14 -92.12,-143.18 36.62,-11.35 75.79,39.1 91.95,66.04z"/>
      <path fill="#CF9066" d="M1199.04 1466.71c0,0 0.24,-0.57 0.62,-1.64 0.4,-1.07 1.08,-2.57 1.88,-4.44 1.77,-3.64 4.74,-8.89 9.76,-12.37 1.25,-0.88 2.68,-1.53 4.12,-2.07 0.76,-0.24 1.49,-0.5 2.33,-0.68l0.56 -0.14 0.03 -0.01c-0.42,0.12 -0.09,0.03 -0.17,0.06l0.08 -0.02 0.22 -0.02 0.36 -0.06 1.53 -0.25c1.11,-0.23 1.94,-0.26 2.75,-0.31 0.8,-0.07 1.68,-0.09 2.68,-0.05 0.91,0.01 1.87,0.04 2.78,0.17 0.98,0.08 1.93,0.14 2.9,0.37 7.7,1.3 15.62,5.13 23.05,10.09 3.78,2.43 7.33,5.25 10.84,8.1 3.45,2.89 6.82,5.86 10.01,8.83 6.37,5.99 12.09,11.94 17.06,17.08 9.86,10.59 16.42,17.64 16.42,17.64 0,0 -0.71,-2.34 -2.36,-6.28 -1.69,-3.93 -4.27,-9.46 -8,-15.76 -1.9,-3.13 -3.97,-6.55 -6.44,-9.97 -2.45,-3.44 -5.19,-7.01 -8.23,-10.52 -6.12,-7.02 -13.39,-14.06 -21.98,-19.79 -4.34,-2.83 -8.92,-5.38 -13.84,-7.27 -4.9,-1.91 -10.13,-3.17 -15.31,-3.48 -1.28,-0.11 -2.57,-0.1 -3.88,-0.07 -1.26,-0.04 -2.53,0.12 -3.78,0.28 -1.21,0.11 -2.49,0.34 -3.78,0.65 -1.3,0.28 -2.53,0.56 -3.41,0.93l-1.5 0.53 -0.92 0.32 -0.86 0.37c-1.13,0.44 -2.16,1.02 -3.17,1.62 -1.96,1.27 -3.7,2.7 -5.12,4.25 -2.93,3.05 -4.56,6.45 -5.59,9.42 -1.08,2.95 -1.43,5.63 -1.66,7.78 -0.22,2.14 -0.14,3.87 -0.11,5.01 0.07,1.14 0.1,1.73 0.1,1.73z"/>
     </g>
     <g>
      <path fill="#EDAC7C" d="M1884.4 1499.88c0,0 68.15,-75.08 121.38,-18.32 53.27,56.74 -40.7,212.16 -147.39,165.9l26.01 -147.57z"/>
      <path fill="#F6A587" d="M1874.54 1555.83l-13.37 75.95c93.44,24.19 157.48,-103.66 115.27,-125.25 -34.1,-17.45 -81.36,25.52 -101.9,49.3z"/>
      <path fill="#CF9066" d="M1989.64 1534.99c0,0 -0.11,-0.59 -0.34,-1.71 -0.22,-1.14 -0.59,-2.71 -1.1,-4.71 -1.09,-3.91 -3.12,-9.58 -7.5,-13.87 -1.05,-1.06 -2.32,-1.95 -3.7,-2.75 -0.71,-0.34 -1.37,-0.77 -2.12,-1.04l-0.58 -0.24 -0.03 -0.02c0.42,0.19 0.09,0.02 0.16,0.06l-0.07 -0.01 -0.18 -0.07 -0.36 -0.14 -1.49 -0.51c-1.03,-0.41 -1.86,-0.57 -2.66,-0.76 -0.78,-0.23 -1.65,-0.4 -2.62,-0.52 -0.91,-0.15 -1.83,-0.26 -2.78,-0.32 -0.95,-0.08 -1.9,-0.16 -2.88,-0.11 -7.81,-0.07 -16.3,2.34 -24.47,5.97 -4.11,1.76 -8.12,3.92 -12.07,6.14 -3.88,2.26 -7.72,4.59 -11.37,6.99 -7.3,4.8 -13.96,9.67 -19.73,13.88 -11.52,8.74 -19.2,14.57 -19.2,14.57 0,0 1.12,-2.2 3.43,-5.78 2.28,-3.57 5.81,-8.61 10.58,-14.17 2.38,-2.75 5.03,-5.76 8.05,-8.71 3.01,-2.98 6.29,-6.01 9.9,-8.96 7.21,-5.86 15.58,-11.55 25.03,-15.74 4.72,-2.03 9.74,-3.75 14.91,-4.78 5.15,-1.04 10.49,-1.39 15.65,-0.81 1.32,0.11 2.57,0.35 3.83,0.61 1.28,0.19 2.47,0.52 3.7,0.92 1.17,0.31 2.36,0.75 3.6,1.28 1.23,0.49 2.39,0.99 3.21,1.51l1.36 0.74 0.85 0.49 0.78 0.51c1.03,0.64 1.98,1.39 2.87,2.16 1.69,1.59 3.16,3.27 4.32,5.05 2.35,3.52 3.36,7.15 3.87,10.22 0.56,3.11 0.44,5.81 0.3,7.97 -0.16,2.16 -0.52,3.84 -0.75,4.95 -0.25,1.1 -0.39,1.69 -0.39,1.69z"/>
     </g>
     <path fill="#EDAC7C" d="M1506.46 1716.67l155.84 13.44c0,0 -15.07,244.54 -14.49,244.59 0,0 -15.65,47.68 -84.88,42.79 -69.24,-4.91 -81.91,-57.2 -81.91,-57.2 0.69,-1.3 25.44,-243.62 25.44,-243.62z"/>
     <path fill="#CF9066" d="M1498.72 1806.41l155.84 13.44c0,0 -2.17,94.98 -1.59,95.04 0,0 -15.65,47.68 -84.88,42.79 -69.25,-4.91 -81.91,-57.21 -81.91,-57.21 0.69,-1.29 12.54,-94.06 12.54,-94.06z"/>
     <path fill="#CF9066" d="M1502.59 1761.54l155.84 13.44c0,0 -0.72,31.34 -1.21,58.02 -0.05,3.87 -45.41,6.77 -50.34,7.12 -38.67,2.76 -75.81,-5.39 -112.12,-18.04 3.56,-27.03 7.83,-60.53 7.83,-60.53z"/>
     <path fill="#EDAC7C" d="M1275.99 1377.73c13.1,-107.94 68.49,-206.15 179.1,-238.93 56.25,-16.69 116.48,-17.22 174.61,-11.25 57.41,5.9 118.35,14.92 170.61,40.42 93.61,45.71 75.21,94.61 76.53,194.33 0.15,9.78 61.05,62.78 60.53,72.54 -1.14,22.37 -1.32,44.48 -4.08,66.8 -6.21,50.17 -18.58,99.95 -39.12,146.32 -24.92,56.27 -62.8,107.19 -114.54,142.29 -29.38,19.96 -62.48,34.31 -97.01,43.25 -57.01,14.71 -110.26,16.61 -167.21,0.96 -38.59,-10.6 -75.72,-26.72 -108.45,-49.55 -54.28,-37.85 -92.67,-92.68 -114.28,-154.14 -18.14,-51.71 -25.17,-106.87 -24.8,-161.37 0.2,-29.84 2.23,-60 7.67,-89.34 0.16,-0.78 0.35,-1.54 0.45,-2.33z"/>
     <g>
      <path fill="#CF9066" d="M1270.08 1380.71c0,0 -1.77,-42.29 3.29,-96.42 -4.39,55.14 -3.29,96.42 -3.29,96.42z"/>
     </g>
     <g>
      <path fill="#3D150C" d="M1412.28 1126.91c98.08,-147.22 542.13,-159.56 575.34,336.44 24.23,361.46 -384.16,406.43 -580.69,321.57 -334.36,-144.37 -92.76,-510.82 5.35,-658.01z"/>
     </g>
    </g>
    <path fill="#36160F" d="M1265.29 1529.82c0,0 -46.51,-14.19 -72.99,-118.52 -18.09,-71.3 2.61,-221.42 90.46,-293.64 51.55,-42.38 65.88,-22.63 65.88,-22.63 0,0 33.99,-166.05 136.07,-136.34 424.76,123.63 399.88,-7.75 534.37,108.91 136.58,118.48 -81.72,367.24 -416.11,257.78 -135.06,-44.21 -220.86,-66.24 -220.86,-66.24 0,0 1.11,43.77 -25.94,105.85 -27.05,62.07 -91.9,129.49 -91.9,129.49l1.02 35.35z"/>
   </g>
  </g>
  <path fill="#A7A5BA" d="M2172.32 2484.5l-186.59 -424.88c-26.73,-60.87 -98.48,-101.59 -179,-101.59l-222.74 0 -24.66 0 -222.74 0c-80.52,0 -152.27,40.72 -179,101.59l-186.59 424.88c-43.39,98.82 48.1,202.35 178.82,202.35l409.52 0 24.66 0 409.52 0c130.72,0 222.21,-103.53 178.81,-202.35z"/>
  <path fill="#1F2638" d="M1868.79 3131.66l-584.41 0c-95.25,0 -172.47,-77.22 -172.47,-172.47l0 -753.59c0,-95.25 77.22,-172.46 172.47,-172.46l584.41 0c95.25,0 172.47,77.21 172.47,172.46l0 753.59c0,95.25 -77.22,172.47 -172.47,172.47z"/>
  <path fill="#eba417" d="M1823.49 3064.34l-493.8 0c-95.25,0 -172.47,-77.22 -172.47,-172.47l0 -667.91c0,-95.25 77.21,-172.46 172.47,-172.46l493.8 0c95.25,0 172.47,77.21 172.47,172.46l0 667.91c0,95.25 -77.21,172.47 -172.47,172.47z"/>
  <polygon class="#A7A5BA" points="1729.13,1980.1 1400.7,1980.1 1400.7,1896.46 1729.13,1896.46 "/>
  <path fill="#eba417" d="M2102.45 3277.01c0,70.61 -243.61,127.84 -544.12,127.84 -300.5,0 -544.12,-57.24 -544.12,-127.84 0,-70.6 243.61,-127.84 544.12,-127.84 300.51,0 544.12,57.24 544.12,127.84z"/>
  <path fill="#1F2638" d="M1143.04 3194.45c99.81,11.08 248.77,18.12 415.29,18.12 166.52,0 315.49,-7.04 415.29,-18.12 -99.81,-27.69 -248.77,-45.28 -415.29,-45.28 -166.52,0 -315.48,17.59 -415.29,45.28z"/>
  <path fill="#1F2638" d="M1024.68 3302c49.47,58.64 269.55,102.85 533.65,102.85 264.1,0 484.18,-44.21 533.65,-102.85l-1067.3 0z"/>
  <g id="_1474778489184">
   <path class="#1F2638" d="M1638.23 4040.91l-159.8 0 0 -1307.72c0,-44.13 35.77,-79.9 79.9,-79.9 44.13,0 79.9,35.77 79.9,79.9l0 1307.72z"/>
  </g>
  <g id="_1474778490768">
   <path fill="#7C230E" d="M1337.46 4028.23l-212.83 0c0,0 -226.49,21.42 -226.49,171.36l439.32 0 0 -171.36z"/>
  </g>
  <g id="_1474778492496">
   <g>
    <path fill="#1F2638" d="M1552.37 3520.45c-2.21,0.19 -224.11,22.48 -467.01,-62.89 -175.41,-61.65 -153.21,-492.35 -124.61,-696.75 68.86,-3.3 121.62,-21.62 121.62,-43.78 0,-24.51 -64.39,-44.37 -143.82,-44.37 -79.43,0 -143.82,19.86 -143.82,44.37 0,20.3 44.25,37.38 104.58,42.65 -21.4,161.3 -69.58,672.9 165.76,755.61 167.15,58.76 322.06,69.4 412.37,69.4 48.3,0 78.14,-3.05 81.47,-3.41l-6.53 -60.84z"/>
   </g>
   <g>
    <path fill="#1F2638" d="M1588.78 3520.45c2.21,0.19 224.11,22.48 467.01,-62.89 175.41,-61.65 153.21,-492.35 124.61,-696.75 -68.86,-3.3 -121.62,-21.62 -121.62,-43.78 0,-24.51 64.39,-44.37 143.82,-44.37 79.43,0 143.82,19.86 143.82,44.37 0,20.3 -44.25,37.38 -104.58,42.65 21.4,161.3 69.58,672.9 -165.76,755.61 -167.15,58.76 -322.06,69.4 -412.37,69.4 -48.3,0 -78.13,-3.05 -81.47,-3.41l6.53 -60.84z"/>
   </g>
  </g>
  <path fill="#1F2638" d="M1652.77 4134.78c0,51.84 -42.02,93.87 -93.87,93.87 -51.85,0 -93.87,-42.03 -93.87,-93.87 0,-51.84 42.03,-93.87 93.87,-93.87 51.84,0 93.87,42.03 93.87,93.87z"/>
  <path fill="#1F2638" d="M1652.77 2686.85c0,51.84 -42.02,93.87 -93.87,93.87 -51.85,0 -93.87,-42.03 -93.87,-93.87 0,-51.85 42.03,-93.87 93.87,-93.87 51.84,0 93.87,42.03 93.87,93.87z"/>
  <g id="_1474778492400">
   <path fill="#1F2638" d="M1342.66 4134.78c0,51.84 -42.03,93.87 -93.87,93.87 -51.84,0 -93.87,-42.03 -93.87,-93.87 0,-51.84 42.03,-93.87 93.87,-93.87 51.85,0 93.87,42.03 93.87,93.87z"/>
   <path fill="#1F2638" d="M1961.75 4134.78c0,51.84 -42.03,93.87 -93.87,93.87 -51.84,0 -93.87,-42.03 -93.87,-93.87 0,-51.84 42.03,-93.87 93.87,-93.87 51.85,0 93.87,42.03 93.87,93.87z"/>
  </g>
  <polygon fill="#1F2638" points="1843.47,4094.02 1274.32,4094.02 1274.32,4028.23 1843.47,4028.23 "/>
 </g>
</svg>
